<?xml version="1.0" encoding="UTF-8"?>
<svg version="1.1" xmlns="http://www.w3.org/2000/svg" width="1024" height="1024">
<path d="M0 0 C337.92 0 675.84 0 1024 0 C1024 337.92 1024 675.84 1024 1024 C686.08 1024 348.16 1024 0 1024 C0 686.08 0 348.16 0 0 Z " fill="#CED1D2" transform="translate(0,0)"/>
<path d="M0 0 C2.4375 1.1875 2.4375 1.1875 5 3 C5.165 3.845625 5.33 4.69125 5.5 5.5625 C5.665 6.366875 5.83 7.17125 6 8 C6.70125 8.268125 7.4025 8.53625 8.125 8.8125 C12.02688724 10.42414908 13.84423891 13.07419572 16.44921875 16.3203125 C16.96097656 16.87460938 17.47273437 17.42890625 18 18 C18.66 18 19.32 18 20 18 C19.96970703 18.58040039 19.93941406 19.16080078 19.90820312 19.75878906 C19.0596383 36.51468055 18.87841191 53.22458411 19 70 C20.05316406 70.43957031 21.10632813 70.87914062 22.19140625 71.33203125 C25.21038346 72.62587863 28.08050974 74.06121324 30.9375 75.6875 C31.70964844 76.12449219 32.48179687 76.56148438 33.27734375 77.01171875 C33.84582031 77.33785156 34.41429687 77.66398437 35 78 C34.67 78.66 34.34 79.32 34 80 C36.8331162 81.62507196 36.8331162 81.62507196 40 83 C40.99 82.67 41.98 82.34 43 82 C45.53344727 83.10473633 45.53344727 83.10473633 48.56640625 84.83203125 C50.24319458 85.77647095 50.24319458 85.77647095 51.95385742 86.73999023 C53.15683415 87.43065988 54.35971321 88.12149964 55.5625 88.8125 C56.78238791 89.50369441 58.00284976 90.19387683 59.22387695 90.88305664 C61.66718317 92.26348967 64.10764539 93.64874811 66.54589844 95.03808594 C71.2412095 97.70500138 75.96226164 100.32411095 80.6875 102.9375 C82.12908085 103.73796689 83.57050754 104.53871152 85.01171875 105.33984375 C85.99785156 105.88769531 86.98398437 106.43554688 88 107 C87.94239502 106.1028125 87.88479004 105.205625 87.82543945 104.28125 C87.6367517 100.91830878 87.49960121 97.56105053 87.39575195 94.19482422 C87.34075952 92.74502363 87.26592246 91.29582427 87.17016602 89.84814453 C86.39838486 77.87109157 86.39838486 77.87109157 90.23168945 73.39282227 C93.06066323 71.32346457 95.90521162 69.6398129 99 68 C100.34609446 67.10953261 101.68258139 66.20416795 103.00390625 65.27734375 C104.18853909 64.49502075 105.37471866 63.71503439 106.5625 62.9375 C111.82070706 59.47631674 116.98036224 55.91925644 122.046875 52.1796875 C124 51 124 51 127 51 C127.04652062 60.97993899 127.08196887 70.95985181 127.10362434 80.93987751 C127.11402247 85.57494778 127.12810841 90.20994339 127.15087891 94.8449707 C127.17274983 99.32537244 127.18459842 103.80570275 127.18975449 108.28615379 C127.19342483 109.98800975 127.20059144 111.68986219 127.21146011 113.39168739 C127.33877749 134.17011132 123.92040489 154.64412761 109.203125 170.44921875 C108.73263229 170.95470749 108.26213959 171.46019623 107.77738953 171.98100281 C101.91610437 178.22990554 95.85961267 184.29033303 89.79223633 190.33813477 C87.80107223 192.32389676 85.81536779 194.3150074 83.83007812 196.30664062 C78.27787755 201.8614418 72.7514312 207.37163965 66.76049805 212.45776367 C63.33459402 215.45893352 60.18763974 218.75010168 57 222 C55.6692679 223.35672297 54.3359398 224.71090465 53 226.0625 C52.4225 226.65160156 51.845 227.24070312 51.25 227.84765625 C46.38904922 232.49762827 41.31933076 236.77113405 35.92010498 240.78253174 C27.65331168 247.3686261 20.70288301 253.98077488 19.20471191 264.8548584 C18.28935824 273.44688968 18.53264548 282.10855865 18.77019215 290.73074627 C18.86832061 295.07733477 18.85084705 299.42358055 18.84661865 303.77105713 C18.85570872 311.97125481 18.96592377 320.1667149 19.11423659 328.36544824 C19.27826804 337.71251405 19.326909 347.05912776 19.36677027 356.40741873 C19.45117658 375.60716966 19.67752745 394.8028435 20 414 C13.45600898 415.14389003 7.13285449 415.18396813 0.5 415.1875 C-0.71042969 415.19974609 -1.92085938 415.21199219 -3.16796875 415.22460938 C-4.33972656 415.22654297 -5.51148438 415.22847656 -6.71875 415.23046875 C-7.78029297 415.23457764 -8.84183594 415.23868652 -9.93554688 415.24291992 C-13.23262728 414.98155958 -15.89071575 414.09030032 -19 413 C-18.99777939 412.19823837 -18.99555878 411.39647675 -18.99327087 410.57041931 C-18.94195101 391.04805035 -18.93481392 371.52612087 -18.97665405 352.00372314 C-18.99582609 342.56271506 -19.00012765 333.12214032 -18.96923828 323.68115234 C-18.94234807 315.45086814 -18.94354621 307.2211453 -18.97825909 298.99088192 C-18.99565947 294.63410355 -18.99913949 290.27833053 -18.96896362 285.92160034 C-18.94097885 281.81707039 -18.95067322 277.71432037 -18.98873711 273.60988808 C-18.99612951 272.10712363 -18.98998857 270.60421927 -18.96898079 269.10158348 C-18.73054792 260.87218215 -18.73054792 260.87218215 -21.70922852 253.39959717 C-23.70501496 251.37057074 -25.71196643 249.68612429 -28 248 C-29.31968768 246.86245233 -30.63322504 245.71768704 -31.9375 244.5625 C-32.5975 243.99402344 -33.2575 243.42554688 -33.9375 242.83984375 C-38.60324422 238.67778783 -42.90745007 234.12825897 -47.2890625 229.671875 C-48.03929687 228.91390625 -48.78953125 228.1559375 -49.5625 227.375 C-50.22378906 226.70210937 -50.88507813 226.02921875 -51.56640625 225.3359375 C-53.59748857 223.38635929 -55.66483781 221.54331309 -57.79492188 219.70507812 C-61.95407658 216.09045959 -65.84831778 212.26318407 -69.71875 208.34375 C-70.42092651 207.63778687 -71.12310303 206.93182373 -71.84655762 206.20446777 C-74.81383766 203.22102625 -77.77505363 200.2315929 -80.73681641 197.24267578 C-82.91618465 195.04509421 -85.09864947 192.85062062 -87.28125 190.65625 C-87.936698 189.99250366 -88.592146 189.32875732 -89.26745605 188.64489746 C-93.09973419 184.79266081 -97.04020294 181.14335381 -101.17956543 177.62219238 C-116.42356316 164.03823973 -124.59508227 145.13264644 -126 125 C-126.1343743 119.31079213 -126.11671729 113.62403825 -126.09765625 107.93359375 C-126.09578815 106.28735904 -126.0943661 104.64112377 -126.09336853 102.99488831 C-126.08957421 98.68938629 -126.07977071 94.38391871 -126.06866455 90.07843018 C-126.05838366 85.67403631 -126.05385668 81.26963681 -126.04882812 76.86523438 C-126.0381453 68.24347389 -126.0211065 59.62174124 -126 51 C-121.92111376 51.87348742 -118.90533852 53.81987479 -115.4765625 56.11328125 C-114.85276703 56.52410446 -114.22897156 56.93492767 -113.58627319 57.35820007 C-111.59562618 58.67100831 -109.61029652 59.99161798 -107.625 61.3125 C-106.29721672 62.18997044 -104.96909506 63.06692906 -103.640625 63.94335938 C-100.08909627 66.2886254 -96.54328433 68.64229428 -93 71 C-91.88206055 71.60062256 -90.76412109 72.20124512 -89.61230469 72.82006836 C-87 75 -87 75 -86.31884766 78.39160156 C-86.3197913 79.72498682 -86.35334102 81.05862273 -86.4140625 82.390625 C-86.42255219 83.09523865 -86.43104187 83.79985229 -86.43978882 84.52581787 C-86.47328692 86.76879081 -86.54853952 89.00812099 -86.625 91.25 C-86.65510515 92.77338543 -86.68248003 94.29682744 -86.70703125 95.8203125 C-86.77305981 99.54805187 -86.87654871 103.27367025 -87 107 C-76.07998825 101.32745699 -65.32351087 95.41506105 -54.66967773 89.25512695 C-53.73067627 88.71718506 -52.7916748 88.17924316 -51.82421875 87.625 C-50.98979248 87.14289063 -50.15536621 86.66078125 -49.2956543 86.1640625 C-46.49447812 84.7436639 -44.13913458 84 -41 84 C-40.67 83.67 -40.34 83.34 -40 83 C-40 82.34 -40 81.68 -40 81 C-36.98555287 79.99518429 -33.97601839 78.99265869 -30.9375 78.0625 C-27.99060581 76.9966021 -25.5592716 75.80654466 -23 74 C-23 73.34 -23 72.68 -23 72 C-21.68 72 -20.36 72 -19 72 C-17.82025958 69.64051915 -17.8909156 68.27384227 -17.91821289 65.64550781 C-17.92800926 64.29335175 -17.92800926 64.29335175 -17.93800354 62.91387939 C-17.94943893 61.93683044 -17.96087433 60.95978149 -17.97265625 59.953125 C-17.98530765 57.89062671 -17.99766823 55.82812662 -18.00976562 53.765625 C-18.03454812 50.50905781 -18.06247344 47.25258364 -18.09594727 43.99609375 C-18.12622481 40.85676491 -18.14395244 37.71755367 -18.16015625 34.578125 C-18.18034569 33.12469696 -18.18034569 33.12469696 -18.20094299 31.64190674 C-18.22516144 25.09014798 -17.83127563 19.61042561 -13.3203125 14.4921875 C-12.80339844 13.89792969 -12.28648437 13.30367187 -11.75390625 12.69140625 C-11.21636719 12.09199219 -10.67882812 11.49257812 -10.125 10.875 C-9.59519531 10.26785156 -9.06539063 9.66070312 -8.51953125 9.03515625 C-5.78001165 5.91495899 -2.98052507 2.89413303 0 0 Z " fill="#838485" transform="translate(510,230)"/>
<path d="M0 0 C0.33 0 0.66 0 1 0 C1.08636719 0.93457031 1.17273438 1.86914062 1.26171875 2.83203125 C2.70807577 16.9122078 4.93982667 31.72314073 12.9609375 43.67578125 C14.38737293 46.86649209 13.91473727 48.66314152 13 52 C11.80078125 54.578125 11.80078125 54.578125 10.3125 57.25 C3.88539936 69.71795726 0.24773131 83.20636831 -2 97 C-2.18304688 98.07765625 -2.36609375 99.1553125 -2.5546875 100.265625 C-6.72418675 135.23089943 4.05893957 171.73068793 25.3046875 199.65625 C37.77628126 215.41572472 52.80486276 227.68291766 70 238 C70 195.1 70 152.2 70 108 C73.39145307 109.69572653 74.7940711 110.58254628 77.25 113.1875 C79.62061642 115.63313593 82.02501621 117.92543566 84.625 120.125 C89.07197653 123.94662046 93.15985782 128.10378155 97.25634766 132.29345703 C97.78276855 132.82825684 98.30918945 133.36305664 98.8515625 133.9140625 C99.54499756 134.6248999 99.54499756 134.6248999 100.25244141 135.35009766 C102.07596884 137.206572 102.07596884 137.206572 105.06665039 138.71278381 C107.41452594 140.69142216 107.95740624 141.77907757 108.54662132 144.83517838 C108.74135175 148.64583498 108.74243367 152.43260195 108.68115234 156.24536133 C108.67945918 157.71405976 108.68041132 159.18276326 108.68380737 160.65145874 C108.68552784 164.63288679 108.65027118 168.6132287 108.60836363 172.59440446 C108.57083729 176.75702792 108.5673298 180.91967672 108.56021118 185.08244324 C108.54156782 192.96256942 108.49233805 200.84219573 108.43211424 208.72210187 C108.36503296 217.69416502 108.3320561 226.66625214 108.30194163 235.63850367 C108.23923827 254.09261911 108.13371348 272.54626935 108 291 C64.84239001 285.75172431 23.74924438 259.14831032 -2.90625 225.375 C-22.94222083 199.20492892 -35.21092223 169.53986034 -40 137 C-40.19207031 135.73542969 -40.38414062 134.47085938 -40.58203125 133.16796875 C-44.50776855 99.96970512 -37.65531597 65.81136698 -23 36 C-22.68836914 35.35369629 -22.37673828 34.70739258 -22.05566406 34.04150391 C-16.80678156 23.25213431 -10.1056677 13.64120726 -3 4 C-2.40832031 3.17886719 -1.81664062 2.35773438 -1.20703125 1.51171875 C-0.80871094 1.01285156 -0.41039062 0.51398438 0 0 Z " fill="#353637" transform="translate(369,351)"/>
<path d="M0 0 C0.66 0 1.32 0 2 0 C3.18579102 1.32250977 3.18579102 1.32250977 4.50390625 3.19140625 C5.23710083 4.22539551 5.23710083 4.22539551 5.98510742 5.28027344 C6.50564697 6.0334082 7.02618652 6.78654297 7.5625 7.5625 C8.10044189 8.33754883 8.63838379 9.11259766 9.19262695 9.91113281 C27.90812615 37.12659949 41.88396908 69.76628359 42.23828125 103.28515625 C42.25297203 104.44024437 42.25297203 104.44024437 42.26795959 105.6186676 C42.44104426 122.76201953 42.26831502 139.28080866 38 156 C37.78569336 156.8564209 37.57138672 157.7128418 37.35058594 158.59521484 C27.72516083 195.95503441 5.72658361 230.50577915 -25 254 C-25.93457031 254.7734375 -26.86914062 255.546875 -27.83203125 256.34375 C-42.18434811 267.98773492 -58.64713451 276.73830523 -76 283 C-76.65726074 283.23799316 -77.31452148 283.47598633 -77.99169922 283.72119141 C-98.37538981 291 -98.37538981 291 -107 291 C-107.37488645 271.83259454 -107.65644751 252.66593949 -107.82899475 233.49561977 C-107.91126731 224.59291489 -108.02327854 215.69249624 -108.20703125 206.79125977 C-108.36724432 199.0265694 -108.46989896 191.26353516 -108.50541592 183.49723774 C-108.5261606 179.38945173 -108.57435803 175.28640015 -108.69168091 171.18014336 C-109.4317914 144.25013177 -109.4317914 144.25013177 -103.51226807 136.73216248 C-100.28737813 133.40418483 -96.79349356 130.73668076 -92.89076996 128.25348282 C-90.24588466 126.50006048 -88.08190972 124.35834598 -85.859375 122.10546875 C-85.16199219 121.44095703 -84.46460938 120.77644531 -83.74609375 120.09179688 C-82.36545832 118.77465446 -80.98805913 117.4541145 -79.61328125 116.13085938 C-78.93136719 115.48310547 -78.24945312 114.83535156 -77.546875 114.16796875 C-76.95745117 113.60360107 -76.36802734 113.0392334 -75.76074219 112.45776367 C-74 111 -74 111 -70 109 C-70 151.57 -70 194.14 -70 238 C-48.84532409 224.9817379 -30.48745823 210.08355459 -17 189 C-16.36835937 188.02933594 -15.73671875 187.05867187 -15.0859375 186.05859375 C3.31702031 156.26525897 8.9119861 117.99752517 1 84 C-2.02262586 72.64712441 -6.01559373 61.981555 -11.91015625 51.8125 C-13 49 -13 49 -12.3671875 46.5390625 C-11.91601562 45.70117188 -11.46484375 44.86328125 -11 44 C-10.53722656 42.95585937 -10.07445312 41.91171875 -9.59765625 40.8359375 C-9.09105469 39.69382812 -8.58445312 38.55171875 -8.0625 37.375 C-2.7611971 25.03360531 -1.16924776 13.27440106 0 0 Z " fill="#313233" transform="translate(651,351)"/>
<path d="M0 0 C1.98263238 0.98949376 3.92699046 2.0573353 5.83984375 3.17578125 C7.54164795 4.16167236 7.54164795 4.16167236 9.27783203 5.16748047 C9.87452698 5.51727966 10.47122192 5.86707886 11.08599854 6.22747803 C14.23239376 8.0713372 17.39228838 9.89181224 20.55078125 11.71484375 C21.50207916 12.26504181 21.50207916 12.26504181 22.47259521 12.82635498 C28.14177213 16.09879483 33.86823299 19.25923741 39.625 22.375 C40.50663818 22.85300049 41.38827637 23.33100098 42.29663086 23.82348633 C44.01951687 24.75732558 45.74257549 25.69084647 47.46582031 26.62402344 C51.65386944 28.89799694 55.82937489 31.19425362 60 33.5 C60.72396973 33.89751465 61.44793945 34.2950293 62.19384766 34.70458984 C66.26816017 36.96186154 70.16131535 39.3609043 74 42 C72.33392729 46.33389799 69.12471393 49.13295035 65.875 52.3125 C65.33101562 52.85583984 64.78703125 53.39917969 64.2265625 53.95898438 C61.32498676 56.83005289 58.35889145 59.57612861 55.2578125 62.23046875 C49.89807161 66.87175435 44.97419901 71.95478931 40 77 C29.49404853 87.65593446 29.49404853 87.65593446 25.0625 91.44140625 C19.4028484 96.28242968 14.24084711 101.65345462 9 106.9375 C7.92862113 108.01390654 6.85700818 109.09008014 5.78515625 110.16601562 C3.18740362 112.77466745 0.59282038 115.38644471 -2 118 C-8.01069581 115.16915617 -12.37154119 110.65123312 -17 106 C-17.54995132 105.4475914 -18.09990265 104.8951828 -18.66651917 104.32603455 C-19.90869778 103.07805445 -21.15073457 101.82993317 -22.39265442 100.58169556 C-25.27220405 97.6886821 -28.15447502 94.79838611 -31.03686523 91.90820312 C-32.54948836 90.39054928 -34.06121301 88.87199938 -35.57202148 87.35253906 C-37.77086528 85.14146481 -39.97301237 82.93372562 -42.17578125 80.7265625 C-42.84064041 80.05654205 -43.50549957 79.38652161 -44.19050598 78.69619751 C-48.05174503 74.83450556 -52.03007995 71.18131754 -56.16331482 67.61306763 C-58.65003935 65.42910334 -60.98132351 63.11384242 -63.3046875 60.7578125 C-64.21734375 59.83742188 -65.13 58.91703125 -66.0703125 57.96875 C-67.48574916 56.53359973 -68.90118191 55.09844558 -70.31640625 53.66308594 C-71.70632591 52.25517685 -73.09920977 50.85019602 -74.4921875 49.4453125 C-75.71977783 48.20031982 -75.71977783 48.20031982 -76.97216797 46.93017578 C-78.85260529 44.9517258 -78.85260529 44.9517258 -81 44 C-81 43.34 -81 42.68 -81 42 C-80.2471875 41.58862793 -79.494375 41.17725586 -78.71875 40.75341797 C-65.60608876 33.578453 -52.51594885 26.38124989 -39.625 18.8125 C-38.18870239 17.97199097 -38.18870239 17.97199097 -36.72338867 17.11450195 C-32.74954411 14.78817718 -28.77712642 12.45972536 -24.81396484 10.11523438 C-21.65462563 8.25058142 -18.48479411 6.40500421 -15.3125 4.5625 C-14.34973145 3.98798096 -13.38696289 3.41346191 -12.39501953 2.8215332 C-11.4976709 2.30421631 -10.60032227 1.78689941 -9.67578125 1.25390625 C-8.89114502 0.79314697 -8.10650879 0.3323877 -7.2980957 -0.14233398 C-4.3460982 -1.2440409 -2.98377073 -0.97344883 0 0 Z " fill="#F9F9F9" transform="translate(514,334)"/>
<path d="M0 0 C11.13126958 8.82463287 19.12479994 18.57538418 21 33 C21.73140252 47.66206907 19.27806801 59.59430884 9.8125 71.3125 C0.25504616 81.32704946 -13.41620125 86.89589317 -27.16455078 87.54101562 C-41.68790811 87.69525838 -54.19957097 82.53406872 -64.8125 72.6875 C-75.36561678 61.34985896 -77.87473437 48.86239763 -77.40625 33.85546875 C-77.01432492 27.50015866 -75.27385276 22.4537596 -72 17 C-71.43023437 16.04738281 -70.86046875 15.09476563 -70.2734375 14.11328125 C-62.92711094 3.03332782 -52.04348965 -4.27976458 -39.125 -7.25 C-26.26942875 -9.42221634 -10.98802813 -7.63498037 0 0 Z " fill="#040404" transform="translate(444,702)"/>
<path d="M0 0 C7.54875 -0.04125 15.0975 -0.0825 22.875 -0.125 C25.23769043 -0.14320801 27.60038086 -0.16141602 30.03466797 -0.18017578 C31.93717218 -0.18602478 33.83967892 -0.19111937 35.7421875 -0.1953125 C36.70584229 -0.20554443 37.66949707 -0.21577637 38.66235352 -0.22631836 C53.07865471 -0.22997454 66.2382095 3.32498334 76.80859375 13.5390625 C85.21064597 22.97452221 88.52697214 32.94650656 88.4375 45.375 C88.45748047 46.35210938 88.47746094 47.32921875 88.49804688 48.3359375 C88.49033112 59.94043768 83.80700803 69.59348304 76.0703125 78.12890625 C55.66543619 97.82372276 26.30691431 92 0 92 C0 61.64 0 31.28 0 0 Z " fill="#050505" transform="translate(569,696)"/>
<path d="M0 0 C7.5989233 -1.7529062 15.61282861 -3.05214122 23 0 C29.66099766 6.46810918 33.4780434 15.34548774 37.38330078 23.64746094 C40.90717296 31.94450373 40.90717296 31.94450373 47 38 C47.24097412 37.3287207 47.48194824 36.65744141 47.73022461 35.96582031 C49.29670089 32.30699434 51.27489349 28.95335849 53.31640625 25.546875 C53.73292953 24.84604797 54.14945282 24.14522095 54.57859802 23.42315674 C55.45525099 21.94971824 56.33362614 20.47730318 57.21362305 19.00585938 C58.56499627 16.74582525 59.91085326 14.48257798 61.25585938 12.21875 C62.10905556 10.78626803 62.96256034 9.35396979 63.81640625 7.921875 C64.42265587 6.90320343 64.42265587 6.90320343 65.04115295 5.86395264 C67.88347938 1.11652062 67.88347938 1.11652062 69 0 C70.63472882 -0.08700342 72.27314055 -0.10701063 73.91015625 -0.09765625 C74.89951172 -0.09443359 75.88886719 -0.09121094 76.90820312 -0.08789062 C77.94912109 -0.07951172 78.99003906 -0.07113281 80.0625 -0.0625 C81.62967773 -0.05573242 81.62967773 -0.05573242 83.22851562 -0.04882812 C85.8190666 -0.03699913 88.40950559 -0.02051689 91 0 C89.75617412 3.27627964 88.36915188 6.26208087 86.56640625 9.265625 C86.08792236 10.06460205 85.60943848 10.8635791 85.11645508 11.68676758 C84.34724731 12.95556763 84.34724731 12.95556763 83.5625 14.25 C83.02971436 15.13389404 82.49692871 16.01778809 81.94799805 16.9284668 C78.93193166 21.90410671 75.85837294 26.83553142 72.6809082 31.7097168 C71.76431879 33.11820647 70.85665211 34.53254086 69.95776367 35.95239258 C67.89859233 39.19102718 65.8305467 42.26592525 63.34765625 45.1953125 C53.29650525 57.89211576 55.78313994 75.65498207 56 91 C49.07 91 42.14 91 35 91 C35.020625 88.78023437 35.04125 86.56046875 35.0625 84.2734375 C35.0552386 82.07206068 35.03433273 79.87119396 35.01220703 77.66992188 C35.00420238 76.16504764 35.00990837 74.66002447 35.03076172 73.15527344 C35.18275931 61.17146311 32.66859068 53.86607949 26 44 C24.68161974 41.84109586 23.37155141 39.67709139 22.0703125 37.5078125 C20.75751931 35.37878162 19.44238525 33.2511925 18.125 31.125 C17.43535156 30.00673828 16.74570312 28.88847656 16.03515625 27.73632812 C12.95974855 22.75531734 9.87178489 17.7831012 6.7421875 12.8359375 C6.27151855 12.09069824 5.80084961 11.34545898 5.31591797 10.57763672 C4.46247305 9.23017544 3.60496328 7.88527684 2.74267578 6.54345703 C0 2.21915957 0 2.21915957 0 0 Z " fill="#030303" transform="translate(469,696)"/>
<path d="M0 0 C5.86354256 4.0239998 9.75733557 9.27200671 12 16 C12.6767216 26.39488758 13.21345186 36.51407055 6.3515625 45.05078125 C0.07311326 51.6719406 -6.66720447 54.96100609 -15.875 55.375 C-23.48327846 55.190277 -29.8481655 51.92294718 -35.4296875 46.84765625 C-42.43313297 38.60728384 -43.63147835 29.41939285 -43 19 C-41.70578825 10.58762362 -36.64588093 4.88374766 -30.26171875 -0.453125 C-22.07944523 -5.60559879 -8.19595035 -4.40152889 0 0 Z " fill="#E8E9E9" transform="translate(431,716)"/>
<path d="M0 0 C31.77777778 0 31.77777778 0 40 8 C46.07363934 16.48244815 46.56729895 23.76760775 46 34 C44.90317096 40.52520325 42.03244338 45.67524397 37 50 C24.73470395 57.6425803 16.91351509 55 0 55 C0 36.85 0 18.7 0 0 Z " fill="#E8E9E9" transform="translate(590,714)"/>
<path d="M0 0 C4.53786224 2.26893112 5.94678157 4.09866534 9 8 C6.50638429 6.79618552 4.31856917 5.54571278 2 4 C2.16677246 5.13872559 2.33354492 6.27745117 2.50537109 7.45068359 C3.3225408 14.87302282 3.02912434 22.33594957 2.9140625 29.7890625 C2.89219162 31.45396389 2.87074725 33.11887094 2.84970093 34.78378296 C2.804276 38.28559968 2.75515669 41.78733782 2.703125 45.2890625 C2.63842668 49.64809954 2.58041106 54.00718842 2.52498245 58.36635208 C2.21515455 82.58327528 1.67803279 106.7907165 1 131 C0.34 130.67 -0.32 130.34 -1 130 C-0.67 87.1 -0.34 44.2 0 0 Z " fill="#5C5C5C" transform="translate(439,459)"/>
<path d="M0 0 C0.66 0.33 1.32 0.66 2 1 C-12.64964186 15.83562364 -12.64964186 15.83562364 -17.6875 20.125 C-20.51978184 22.55619618 -23.0570735 24.76178917 -25 28 C-25.33465889 31.70940775 -25.33465889 31.70940775 -25 35 C-25.66 35 -26.32 35 -27 35 C-27 81.2 -27 127.4 -27 175 C-27.33 175 -27.66 175 -28 175 C-28.37488645 155.83259454 -28.65644751 136.66593949 -28.82899475 117.49561977 C-28.91126731 108.59291489 -29.02327854 99.69249624 -29.20703125 90.79125977 C-29.36724432 83.0265694 -29.46989896 75.26353516 -29.50541592 67.49723774 C-29.5261606 63.38945173 -29.57435803 59.28640015 -29.69168091 55.18014336 C-30.43095798 28.26861133 -30.43095798 28.26861133 -24.57763672 20.78640747 C-21.37977862 17.47838597 -17.90959149 14.85082915 -14.04098511 12.37819099 C-10.70518593 10.12566677 -7.89264346 7.3458321 -5 4.5625 C-3.33421597 3.04069996 -1.6679244 1.51945385 0 0 Z " fill="#8F8F8F" transform="translate(572,467)"/>
<path d="M0 0 C0.99 0.33 1.98 0.66 3 1 C2.52949219 1.44730469 2.05898438 1.89460938 1.57421875 2.35546875 C-1.87181968 5.701622 -4.68967225 8.74413309 -7 13 C-7.66 13.66 -8.32 14.32 -9 15 C-9.433125 16.0209375 -9.433125 16.0209375 -9.875 17.0625 C-11 19 -11 19 -13.125 19.75 C-14.053125 19.87375 -14.053125 19.87375 -15 20 C-15.33 21.32 -15.66 22.64 -16 24 C-15.01 23.67 -14.02 23.34 -13 23 C-12.06934867 25.60582371 -11.85082593 26.64198224 -12.9375 29.25 C-13.288125 29.8275 -13.63875 30.405 -14 31 C-14.99 30.67 -15.98 30.34 -17 30 C-17 29.34 -17 28.68 -17 28 C-17.99 27.67 -18.98 27.34 -20 27 C-20.66 25.35 -21.32 23.7 -22 22 C-14.74 14.74 -7.48 7.48 0 0 Z " fill="#5C5F5F" transform="translate(533,430)"/>
<path d="M0 0 C0.33 0 0.66 0 1 0 C1.92667818 10.50380456 2.24668132 20.95904461 2.29516602 31.49902344 C2.30684072 33.26765849 2.32752706 35.03625435 2.35668945 36.8046875 C2.39915567 39.3934661 2.41548446 41.98123013 2.42578125 44.5703125 C2.44328934 45.35882599 2.46079742 46.14733948 2.47883606 46.95974731 C2.45680864 52.49617335 2.45680864 52.49617335 -0.02937317 55.23825073 C-0.67968002 55.81962799 -1.32998688 56.40100525 -2 57 C-1.89263934 49.71568154 -1.78003508 42.43146431 -1.66066074 35.14733219 C-1.60540198 31.76532878 -1.55197744 28.38331676 -1.50268555 25.0012207 C-1.44599054 21.11660573 -1.38142415 17.23214122 -1.31640625 13.34765625 C-1.29969376 12.12788589 -1.28298126 10.90811554 -1.26576233 9.65138245 C-1.24581711 8.53029587 -1.22587189 7.40920929 -1.20532227 6.25415039 C-1.18977798 5.26153702 -1.1742337 4.26892365 -1.15821838 3.24623108 C-1 1 -1 1 0 0 Z " fill="#B8B8B8" transform="translate(491,247)"/>
<path d="M0 0 C3.74886556 1.55653071 6.08955008 3.87318329 8.9140625 6.75390625 C9.83960938 7.69041016 10.76515625 8.62691406 11.71875 9.59179688 C12.68785102 10.58168773 13.65659713 11.57192614 14.625 12.5625 C16.53065371 14.50450908 18.44035631 16.44234188 20.3515625 18.37890625 C21.19541504 19.2407251 22.03926758 20.10254395 22.90869141 20.99047852 C24.83637401 23.04204037 24.83637401 23.04204037 27 24 C27 24.66 27 25.32 27 26 C27.66 26 28.32 26 29 26 C30.70993434 27.6222454 32.37347684 29.29413425 34 31 C34.598125 31.556875 35.19625 32.11375 35.8125 32.6875 C37 34 37 34 37 36 C38.32 36.66 39.64 37.32 41 38 C37.36623947 38 36.88480368 37.33254943 34.27148438 34.95068359 C33.56531982 34.30879089 32.85915527 33.66689819 32.1315918 33.0055542 C28.92030682 29.98414734 25.76885371 26.91191242 22.65625 23.7890625 C22.00168823 23.13545746 21.34712646 22.48185242 20.67272949 21.80844116 C19.30695937 20.44334531 17.94242607 19.07701096 16.57910156 17.70947266 C14.48096379 15.60591462 12.37745702 13.50782954 10.2734375 11.41015625 C8.94238704 10.07844606 7.61164623 8.74642628 6.28125 7.4140625 C5.65013306 6.78496979 5.01901611 6.15587708 4.36877441 5.50772095 C0 1.11498854 0 1.11498854 0 0 Z " fill="#4A4C4C" transform="translate(414,411)"/>
<path d="M0 0 C0.66 0.33 1.32 0.66 2 1 C-12.64964186 15.83562364 -12.64964186 15.83562364 -17.6875 20.125 C-20.51978184 22.55619618 -23.0570735 24.76178917 -25 28 C-25.33465889 31.70940775 -25.33465889 31.70940775 -25 35 C-25.66 35 -26.32 35 -27 35 C-28.01971374 26.6482088 -28.01971374 26.6482088 -25.78710938 23.03955078 C-24.03151575 21.23553776 -22.2069522 19.64572131 -20.25 18.0625 C-19.57638428 17.47839355 -18.90276855 16.89428711 -18.20874023 16.29248047 C-16.82839229 15.09575604 -15.43892015 13.9094748 -14.04052734 12.73388672 C-10.96459624 10.12019173 -8.01880629 7.3721508 -5.0625 4.625 C-4.07519865 3.72028365 -3.08702017 2.81652283 -2.09765625 1.9140625 C-1.40542969 1.28242188 -0.71320312 0.65078125 0 0 Z " fill="#6A6B6A" transform="translate(572,467)"/>
<path d="M0 0 C0.33 0 0.66 0 1 0 C1.04985767 5.08624889 1.08593386 10.17235197 1.10986328 15.25878906 C1.11985099 16.98505129 1.13344583 18.71129691 1.15087891 20.4375 C1.2404404 29.54116273 1.31487595 38.12327097 -1 47 C-1.66 46.34 -2.32 45.68 -3 45 C-2.64356995 43.13861084 -2.64356995 43.13861084 -2 41 C-1.86492114 39.5970794 -1.76806144 38.19012713 -1.70288086 36.78222656 C-1.66291489 35.96167786 -1.62294891 35.14112915 -1.58177185 34.29571533 C-1.52389244 32.98144562 -1.52389244 32.98144562 -1.46484375 31.640625 C-1.42186661 30.73624695 -1.37888947 29.8318689 -1.33460999 28.90008545 C-1.1984646 26.01688588 -1.06791154 23.13346405 -0.9375 20.25 C-0.84607182 18.29295149 -0.75427925 16.33591997 -0.66210938 14.37890625 C-0.43718045 9.58612422 -0.21726603 4.79313527 0 0 Z " fill="#707171" transform="translate(636,322)"/>
<path d="M0 0 C0.99 0.33 1.98 0.66 3 1 C1.42780885 6.64204766 -0.27739215 11.79153282 -3 17 C-3.69971973 18.98867713 -4.37664397 20.98608051 -5 23 C-5.66 23 -6.32 23 -7 23 C-7.33 24.65 -7.66 26.3 -8 28 C-9.19921875 26.4140625 -9.19921875 26.4140625 -10 24 C-9.05114604 21.60828558 -8.07403596 19.59057065 -6.8125 17.375 C-3.77375818 11.72473512 -1.51588736 6.26566776 0 0 Z " fill="#555756" transform="translate(648,374)"/>
<path d="M0 0 C4.25509871 2.0207906 6.10732846 4.30380858 9 8 C6.50638429 6.79618552 4.31856917 5.54571278 2 4 C2.185625 5.19625 2.37125 6.3925 2.5625 7.625 C3.30987344 14.1126167 2.59892169 20.52243156 2 27 C1.67 27 1.34 27 1 27 C0.11097088 20.95180188 -0.12348383 15.10776514 -0.0625 9 C-0.05798828 8.12988281 -0.05347656 7.25976562 -0.04882812 6.36328125 C-0.0371736 4.24215707 -0.01924357 2.1210689 0 0 Z " fill="#575757" transform="translate(439,459)"/>
<path d="M0 0 C0.66 0.66 1.32 1.32 2 2 C-3 10 -8 18 -13 26 C-13.66 25.67 -14.32 25.34 -15 25 C-10.50887419 16.25105362 -5.93522958 7.88272678 0 0 Z " fill="#525353" transform="translate(361,362)"/>
<path d="M0 0 C0.99 0.33 1.98 0.66 3 1 C2.52949219 1.44730469 2.05898438 1.89460938 1.57421875 2.35546875 C-2.42307406 6.22783815 -2.42307406 6.22783815 -5.625 10.75 C-7.34768897 13.56894559 -9.0074479 14.65335156 -12 16 C-12.99 15.67 -13.98 15.34 -15 15 C-10.05 10.05 -5.1 5.1 0 0 Z " fill="#707272" transform="translate(533,430)"/>
<path d="M0 0 C0 11.88 0 23.76 0 36 C-0.33 36 -0.66 36 -1 36 C-1.19904662 32.02132438 -1.38211694 28.04206199 -1.5625 24.0625 C-1.61857422 22.94552734 -1.67464844 21.82855469 -1.73242188 20.67773438 C-2.01270914 14.30587052 -1.90419952 8.31600106 -1 2 C-1.93972656 2.63228516 -1.93972656 2.63228516 -2.8984375 3.27734375 C-3.71570313 3.82519531 -4.53296875 4.37304688 -5.375 4.9375 C-6.18710937 5.48277344 -6.99921875 6.02804687 -7.8359375 6.58984375 C-10 8 -10 8 -12 9 C-11.875 7.25 -11.875 7.25 -11 5 C-7.65392826 2.39749976 -4.38898549 0 0 0 Z " fill="#9B9C9B" transform="translate(636,282)"/>
<path d="M0 0 C1.32 0.66 2.64 1.32 4 2 C2.60809755 5.08549803 0.95565889 7.37046979 -1.3125 9.875 C-4.28370859 13.19429997 -7.16512646 16.56378965 -10 20 C-11.32 19.67 -12.64 19.34 -14 19 C-13.54036865 18.56655273 -13.0807373 18.13310547 -12.60717773 17.68652344 C-10.53769149 15.7207873 -8.48763766 13.73589879 -6.4375 11.75 C-5.71369141 11.06808594 -4.98988281 10.38617188 -4.24414062 9.68359375 C-3.56416016 9.01972656 -2.88417969 8.35585938 -2.18359375 7.671875 C-1.54993896 7.0644043 -0.91628418 6.45693359 -0.26342773 5.83105469 C1.26255719 4.05882175 1.26255719 4.05882175 0.69897461 1.77050781 C0.46831299 1.18624023 0.23765137 0.60197266 0 0 Z " fill="#757877" transform="translate(586,374)"/>
<path d="M0 0 C0.70125 0.44730469 1.4025 0.89460938 2.125 1.35546875 C7.73407926 4.92973257 13.3539018 8.4845049 19 12 C18.67 15.3 18.34 18.6 18 22 C17.67 22 17.34 22 17 22 C17.0213501 21.4126709 17.0427002 20.8253418 17.06469727 20.22021484 C16.96863277 15.33825896 16.96863277 15.33825896 14.41748047 11.36816406 C12.31012751 9.97824045 10.18253412 8.77915076 7.9375 7.625 C6.44148674 6.81407692 4.95028137 5.99419924 3.46484375 5.1640625 C2.46892212 4.64513428 2.46892212 4.64513428 1.45288086 4.11572266 C0.97343018 3.74753418 0.49397949 3.3793457 0 3 C0 2.01 0 1.02 0 0 Z " fill="#A2A2A2" transform="translate(404,293)"/>
<path d="M0 0 C0.99 0.33 1.98 0.66 3 1 C2.875 3.75 2.875 3.75 2 7 C-1.0625 9.375 -1.0625 9.375 -4 11 C-4.99 10.34 -5.98 9.68 -7 9 C-6.34 8.01 -5.68 7.02 -5 6 C-4.01 6 -3.02 6 -2 6 C-2 5.34 -2 4.68 -2 4 C-1.01 4 -0.02 4 1 4 C1 3.34 1 2.68 1 2 C0.34 1.67 -0.32 1.34 -1 1 C-0.67 0.67 -0.34 0.34 0 0 Z " fill="#6A6D6D" transform="translate(507,450)"/>
<path d="M0 0 C0.99 0.495 0.99 0.495 2 1 C3.9191403 8.38249937 2.52154349 15.68150158 1 23 C0.67 23 0.34 23 0 23 C0 15.41 0 7.82 0 0 Z " fill="#18191A" transform="translate(656,457)"/>
<path d="M0 0 C4.95 1.98 4.95 1.98 10 4 C9.67 5.65 9.34 7.3 9 9 C7.68 8.67 6.36 8.34 5 8 C5 7.34 5 6.68 5 6 C4.01 5.67 3.02 5.34 2 5 C1.34 3.35 0.68 1.7 0 0 Z " fill="#6A6C6C" transform="translate(511,452)"/>
<path d="M0 0 C0.99 0.33 1.98 0.66 3 1 C-0.96 4.96 -4.92 8.92 -9 13 C-9.66 12.34 -10.32 11.68 -11 11 C-10.54109375 10.62488281 -10.0821875 10.24976563 -9.609375 9.86328125 C-5.96703891 6.82545052 -2.82808093 3.84619007 0 0 Z " fill="#E2E2E2" transform="translate(456,769)"/>
<path d="M0 0 C0.33 0 0.66 0 1 0 C1.33 4.29 1.66 8.58 2 13 C1.34 13 0.68 13 0 13 C0 14.65 0 16.3 0 18 C-0.33 18 -0.66 18 -1 18 C-1.02684312 15.18743719 -1.04676188 12.37512759 -1.0625 9.5625 C-1.07087891 8.76005859 -1.07925781 7.95761719 -1.08789062 7.13085938 C-1.0965143 5.08704779 -1.0522815 3.04316098 -1 1 C-0.67 0.67 -0.34 0.34 0 0 Z " fill="#B2B2B1" transform="translate(491,247)"/>
<path d="M0 0 C5.47035213 3.79037089 9.89962427 7.75027653 14 13 C10.33620697 11.42491141 7.70148695 9.15806427 4.75 6.5 C3.85796875 5.7059375 2.9659375 4.911875 2.046875 4.09375 C0 2 0 2 0 0 Z " fill="#2C2C2C" transform="translate(404,563)"/>
<path d="M0 0 C4.52615993 3.67832017 8.39424999 7.41086363 12 12 C9 12 9 12 7.24609375 10.28515625 C6.35083984 9.18494141 6.35083984 9.18494141 5.4375 8.0625 C3.08714476 5.07351045 3.08714476 5.07351045 0 3 C0 2.01 0 1.02 0 0 Z " fill="#B7B7B7" transform="translate(518,236)"/>
<path d="M0 0 C2 1 2 1 2 1 Z M0 2 C-3.63 3.98 -7.26 5.96 -11 8 C-10 4 -10 4 -7.1875 2.1875 C-4 1 -4 1 0 2 Z " fill="#A1A1A1" transform="translate(451,323)"/>
<path d="M0 0 C-3.90102388 2.78644563 -7.38486888 4.68139111 -12 6 C-11 3 -11 3 -9.2578125 1.796875 C-8.55398438 1.45140625 -7.85015625 1.1059375 -7.125 0.75 C-6.42632812 0.39421875 -5.72765625 0.0384375 -5.0078125 -0.328125 C-3 -1 -3 -1 0 0 Z " fill="#ACACAC" transform="translate(488,304)"/>
<path d="M0 0 C0.66 0.33 1.32 0.66 2 1 C-1.42388092 4.82669043 -4.00724943 6.72278474 -9 8 C-7.83917375 4.51752126 -7.09067524 4.11180756 -4.0625 2.25 C-3.35222656 1.80140625 -2.64195312 1.3528125 -1.91015625 0.890625 C-1.27980469 0.59671875 -0.64945313 0.3028125 0 0 Z " fill="#A7A8A8" transform="translate(620,291)"/>
<path d="M0 0 C0.66 0.33 1.32 0.66 2 1 C-1.3 3.64 -4.6 6.28 -8 9 C-8.33 8.01 -8.66 7.02 -9 6 C-6.03 4.02 -3.06 2.04 0 0 Z " fill="#9F9F9F" transform="translate(608,299)"/>
<path d="M0 0 C0.66 0 1.32 0 2 0 C0.44499019 3.81684226 -2.03595495 6.19195732 -5 9 C-5.66 8.67 -6.32 8.34 -7 8 C-5.88200014 6.66079162 -4.75538103 5.32877444 -3.625 4 C-2.68527344 2.88625 -2.68527344 2.88625 -1.7265625 1.75 C-1.15679687 1.1725 -0.58703125 0.595 0 0 Z " fill="#DBDBDB" transform="translate(399,717)"/>
<path d="M0 0 C0.99 0.33 1.98 0.66 3 1 C2.01 4.3 1.02 7.6 0 11 C-2 7 -2 7 -1.125 3.25 C-0.75375 2.1775 -0.3825 1.105 0 0 Z " fill="#5D5E5E" transform="translate(648,374)"/>
<path d="M0 0 C1.98 0 3.96 0 6 0 C5.67 0.99 5.34 1.98 5 3 C5.99 2.67 6.98 2.34 8 2 C8 2.99 8 3.98 8 5 C4.5625 4.1875 4.5625 4.1875 1 3 C0.67 2.01 0.34 1.02 0 0 Z " fill="#535656" transform="translate(512,451)"/>
<path d="M0 0 C0.33 0 0.66 0 1 0 C1.05391993 1.79133978 1.09275571 3.58313899 1.125 5.375 C1.14820313 6.37273437 1.17140625 7.37046875 1.1953125 8.3984375 C1 11 1 11 -1 13 C-1.38218767 11.34385343 -1.71395102 9.67542976 -2 8 C-1.67 7.67 -1.34 7.34 -1 7 C-0.63239269 4.67182036 -0.29758419 2.3381615 0 0 Z " fill="#666767" transform="translate(635,356)"/>
<path d="M0 0 C0.66 0.33 1.32 0.66 2 1 C0.88121617 2.17262904 -0.24523051 3.33795138 -1.375 4.5 C-2.00148438 5.1496875 -2.62796875 5.799375 -3.2734375 6.46875 C-5 8 -5 8 -7 8 C-5.61918777 3.8575633 -3.40174442 2.67796901 0 0 Z " fill="#585A5A" transform="translate(572,467)"/>
<path d="M0 0 C1.88391785 3.26545761 2.49287967 6.28111761 3 10 C2.67 9.34 2.34 8.68 2 8 C1.01 8 0.02 8 -1 8 C-0.67 5.36 -0.34 2.72 0 0 Z " fill="#585A59" transform="translate(373,376)"/>
<path d="M0 0 C1.485 0.99 1.485 0.99 3 2 C3 2.66 3 3.32 3 4 C2.34 4 1.68 4 1 4 C0.67 6.31 0.34 8.62 0 11 C-1.37432457 7.18243176 -0.67975039 3.92744671 0 0 Z " fill="#575857" transform="translate(650,363)"/>
<path d="M0 0 C6.75 0.875 6.75 0.875 9 2 C8.67 2.99 8.34 3.98 8 5 C5.36 3.68 2.72 2.36 0 1 C0 0.67 0 0.34 0 0 Z " fill="#ADADAD" transform="translate(542,309)"/>
<path d="M0 0 C0.99 0.33 1.98 0.66 3 1 C1.35 2.65 -0.3 4.3 -2 6 C-2.66 5.67 -3.32 5.34 -4 5 C-2.68 3.35 -1.36 1.7 0 0 Z " fill="#DCDCDC" transform="translate(456,769)"/>
<path d="M0 0 C4.21912747 0.4794463 6.79663178 1.16625119 10 4 C3.47692308 3.38461538 3.47692308 3.38461538 1.0625 1.4375 C0.711875 0.963125 0.36125 0.48875 0 0 Z " fill="#232325" transform="translate(445,632)"/>
<path d="M0 0 C2.25 0.25 2.25 0.25 4 1 C1.03 3.475 1.03 3.475 -2 6 C-2.66 5.34 -3.32 4.68 -4 4 C-2.25 1.9375 -2.25 1.9375 0 0 Z " fill="#E8E8E8" transform="translate(634,597)"/>
<path d="M0 0 C0.66 0.33 1.32 0.66 2 1 C1.01 1 0.02 1 -1 1 C-0.67 0.67 -0.34 0.34 0 0 Z M-4 1 C-3.01 1.33 -2.02 1.66 -1 2 C-2.485 3.485 -2.485 3.485 -4 5 C-4.99 4.67 -5.98 4.34 -7 4 C-6.01 3.01 -5.02 2.02 -4 1 Z " fill="#696C6B" transform="translate(525,441)"/>
</svg>
